<svg width="512" height="512" viewBox="0 0 512 512" fill="none" xmlns="http://www.w3.org/2000/svg">
<g clip-path="url(#clip0_20_14)">
<path d="M0 256C0 158.687 20.4522 87.04 53.76 53.76C87.0678 20.48 158.753 0 256 0C353.355 0 424.96 20.4172 458.24 53.76C491.52 87.1028 512 158.795 512 256C512 353.323 491.556 424.96 458.24 458.24C424.924 491.52 353.237 512 256 512C158.796 512 87.1038 491.52 53.76 458.24C20.4162 424.96 0 353.356 0 256Z" fill="#fff"/>
<path d="M327.88 107L256.098 178.782L184.316 107C128.087 133.32 91 189.549 91 254.153C91 345.076 163.978 418.055 254.902 418.055C345.825 418.055 420 345.076 420 254.153C420 189.549 381.716 133.32 327.88 107Z" fill="#2CE080"/>
<path d="M299.163 221.851L254.897 178.782L211.828 221.851C187.901 245.778 187.901 285.258 211.828 309.185C235.756 333.113 275.236 333.113 299.163 309.185C323.09 285.258 323.09 245.778 299.163 221.851Z" fill="#03314B"/>
</g>
<defs>
<clipPath id="clip0_20_14">
<rect width="512" height="512" fill="white"/>
</clipPath>
</defs>
</svg>
