<svg width="32" height="32" viewBox="0 0 32 32" fill="none" xmlns="http://www.w3.org/2000/svg">
<path d="M29 9.99911V23.9991C28.9998 24.1942 28.981 24.3888 28.9438 24.5804C28.9276 24.6725 28.8859 24.7583 28.8235 24.8279C28.761 24.8975 28.6803 24.9482 28.5905 24.9743C28.5006 25.0003 28.4053 25.0007 28.3153 24.9752C28.2252 24.9498 28.1442 24.8996 28.0812 24.8304L10.75 5.75911C10.6749 5.67662 10.6296 5.5714 10.6212 5.46019C10.6129 5.34898 10.6419 5.23816 10.7037 5.14536L11.1713 4.44411C11.2623 4.30765 11.3855 4.19568 11.53 4.11808C11.6746 4.04047 11.836 3.99962 12 3.99911H20C20.1647 3.999 20.3268 4.03956 20.4721 4.11719C20.6173 4.19483 20.7411 4.30712 20.8325 4.44411L22.535 6.99911H26C26.7956 6.99911 27.5587 7.31518 28.1213 7.87779C28.6839 8.4404 29 9.20346 29 9.99911ZM26.74 26.3266C26.8302 26.4235 26.9002 26.5373 26.9461 26.6614C26.9919 26.7855 27.0127 26.9175 27.0072 27.0497C27.0017 27.1819 26.97 27.3117 26.9139 27.4316C26.8578 27.5515 26.7785 27.659 26.6806 27.748C26.5827 27.837 26.4681 27.9057 26.3434 27.9501C26.2187 27.9945 26.0865 28.0136 25.9543 28.0065C25.8222 27.9994 25.6928 27.9662 25.5736 27.9087C25.4544 27.8512 25.3478 27.7706 25.26 27.6716L24.6488 26.9991H6C5.20435 26.9991 4.44129 26.683 3.87868 26.1204C3.31607 25.5578 3 24.7948 3 23.9991V9.99911C3 9.20346 3.31607 8.4404 3.87868 7.87779C4.44129 7.31518 5.20435 6.99911 6 6.99911H6.46625L5.26 5.67161C5.16983 5.57475 5.09979 5.46096 5.05392 5.33683C5.00806 5.2127 4.98728 5.08071 4.99281 4.94849C4.99833 4.81627 5.03004 4.68647 5.0861 4.5666C5.14216 4.44673 5.22146 4.33918 5.31939 4.25018C5.41732 4.16118 5.53194 4.09251 5.65661 4.04813C5.78128 4.00376 5.91352 3.98457 6.04566 3.99168C6.1778 3.99879 6.30721 4.03205 6.4264 4.08955C6.54559 4.14704 6.65218 4.22762 6.74 4.32661L26.74 26.3266ZM18.5 20.2391L12.515 13.6541C11.8357 14.4894 11.4784 15.5406 11.508 16.6169C11.5376 17.6931 11.9521 18.7231 12.6763 19.5199C13.4004 20.3166 14.3862 20.8273 15.4548 20.9593C16.5233 21.0913 17.6038 20.8357 18.5 20.2391Z" fill="black"/>
</svg>
