<svg width="512" height="513" viewBox="0 0 512 513" fill="none" xmlns="http://www.w3.org/2000/svg">
<g clip-path="url(#clip0_2179_148)">
<path d="M0 256.875C0 159.562 20.4522 87.915 53.76 54.635C87.0678 21.355 158.753 0.875 256 0.875C353.355 0.875 424.96 21.2922 458.24 54.635C491.52 87.9778 512 159.67 512 256.875C512 354.198 491.556 425.835 458.24 459.115C424.924 492.395 353.237 512.875 256 512.875C158.796 512.875 87.1038 492.395 53.76 459.115C20.4162 425.835 0 354.231 0 256.875Z" fill="black"/>
<path fill-rule="evenodd" clip-rule="evenodd" d="M269.009 118.509H265.834V246.144H393.389V242.229C332.745 226.639 284.955 179.036 269.009 118.509Z" fill="white"/>
<path fill-rule="evenodd" clip-rule="evenodd" d="M268.455 243.526H388.175C331.015 227.173 285.922 182.867 268.455 126.086V243.526ZM393.383 248.762H265.823C265.128 248.76 264.462 248.484 263.972 247.992C263.481 247.5 263.205 246.834 263.205 246.139V118.509C263.205 117.062 264.376 115.891 265.828 115.891H269.003C269.58 115.893 270.141 116.085 270.599 116.438C271.056 116.791 271.384 117.285 271.531 117.844C287.28 177.627 334.218 224.316 394.038 239.695C394.6 239.842 395.098 240.17 395.453 240.629C395.808 241.089 396.001 241.653 396.001 242.234V246.148C396.001 247.591 394.83 248.766 393.378 248.766M393.392 269.788V266.608H265.832V394.248H269.743C285.328 333.566 332.897 285.743 393.392 269.788Z" fill="white"/>
<path fill-rule="evenodd" clip-rule="evenodd" d="M268.454 269.226V389.017C276.514 360.865 291.468 335.167 311.962 314.251C332.456 293.334 357.842 277.859 385.824 269.226H268.454ZM269.738 396.866H265.823C265.128 396.864 264.462 396.588 263.971 396.096C263.48 395.604 263.205 394.938 263.205 394.243V266.608C263.205 265.166 264.375 263.995 265.827 263.995H393.383C394.825 263.995 396 265.166 396 266.608V269.788C395.999 270.365 395.808 270.926 395.455 271.383C395.103 271.84 394.61 272.168 394.052 272.317C364.689 280.079 337.927 295.53 316.521 317.076C295.115 338.622 279.841 365.486 272.271 394.899C272.126 395.461 271.798 395.959 271.34 396.315C270.882 396.671 270.318 396.864 269.738 396.866ZM242.019 394.243H245.203V266.613H117.639V270.528C178.283 286.122 226.073 333.715 242.019 394.253" fill="white"/>
<path fill-rule="evenodd" clip-rule="evenodd" d="M122.81 269.227C179.975 285.58 225.067 329.885 242.535 386.667V269.227H122.81ZM245.176 396.866H242.006C241.428 396.865 240.867 396.672 240.41 396.319C239.952 395.966 239.625 395.472 239.477 394.913C223.728 335.13 176.786 288.441 116.97 273.062C116.407 272.916 115.909 272.586 115.554 272.126C115.199 271.666 115.007 271.101 115.008 270.519V266.609C115.008 265.166 116.179 263.991 117.626 263.991H245.181C246.623 263.991 247.794 265.162 247.794 266.614V394.244C247.794 395.695 246.623 396.866 245.181 396.866M117.63 242.964V246.139H245.195V118.509H241.28C225.695 179.187 178.13 227.009 117.63 242.964Z" fill="white"/>
<path fill-rule="evenodd" clip-rule="evenodd" d="M125.212 243.52H242.577V123.725C234.518 151.877 219.566 177.575 199.073 198.493C178.58 219.41 153.193 234.886 125.212 243.52ZM245.181 248.76H117.626C116.931 248.759 116.265 248.482 115.774 247.991C115.283 247.499 115.008 246.833 115.008 246.138V242.968C115.008 241.773 115.804 240.734 116.956 240.439C146.319 232.676 173.083 217.225 194.488 195.678C215.894 174.131 231.168 147.266 238.737 117.852C238.882 117.291 239.209 116.794 239.666 116.438C240.124 116.082 240.686 115.888 241.266 115.885H245.181C246.623 115.885 247.794 117.056 247.794 118.508V246.143C247.794 247.585 246.623 248.76 245.181 248.76Z" fill="white"/>
</g>
<defs>
<clipPath id="clip0_2179_148">
<rect width="512" height="512" fill="white" transform="translate(0 0.875)"/>
</clipPath>
</defs>
</svg>
