<svg width="512" height="513" viewBox="0 0 512 513" fill="none" xmlns="http://www.w3.org/2000/svg">
<path d="M0 256C0 158.687 20.4522 87.04 53.76 53.76C87.0678 20.48 158.753 0 256 0C353.355 0 424.96 20.4172 458.24 53.76C491.52 87.1028 512 158.795 512 256C512 353.323 491.556 424.96 458.24 458.24C424.924 491.52 353.237 512 256 512C158.796 512 87.1038 491.52 53.76 458.24C20.4162 424.96 0 353.356 0 256Z" fill="#499CEF"/>
<path fill-rule="evenodd" clip-rule="evenodd" d="M286.29 509.243C286.263 509.567 262.74 512.104 250.908 512.02C238.397 511.926 211.122 509.363 211.215 508.693V318.209H146V248.932H211.215V202.826C211.215 126.497 248.402 93 311.835 93C342.214 93 358.295 95.2618 365.892 96.2729V156.743H322.621C295.692 156.743 286.29 182.288 286.29 211.062V248.932H365.213L354.516 318.209H286.29V509.243Z" fill="white"/>
</svg>
