<svg width="32" height="32" viewBox="0 0 32 32" fill="none" xmlns="http://www.w3.org/2000/svg">
<path d="M23.9995 12C24.8391 11.3704 25.4592 10.4925 25.7721 9.49084C26.085 8.48916 26.0748 7.41442 25.7429 6.41886C25.4111 5.4233 24.7744 4.55739 23.9231 3.94379C23.0717 3.33019 22.0489 3 20.9995 3H11.9995C10.9501 3 9.9273 3.33019 9.07597 3.94379C8.22464 4.55739 7.58796 5.4233 7.2561 6.41886C6.92425 7.41442 6.91405 8.48916 7.22695 9.49084C7.53985 10.4925 8.15999 11.3704 8.99952 12C8.36387 12.4764 7.85087 13.0973 7.503 13.8115C7.15514 14.5256 6.98242 15.3123 6.99916 16.1065C7.0159 16.9006 7.22161 17.6794 7.59925 18.3782C7.9769 19.077 8.51561 19.6758 9.17077 20.125C8.42557 20.6916 7.83731 21.439 7.46169 22.2964C7.08607 23.1539 6.93553 24.093 7.02432 25.0249C7.1131 25.9569 7.43828 26.8507 7.96906 27.6218C8.49984 28.3929 9.21866 29.0157 10.0574 29.4314C10.8962 29.8471 11.8272 30.0417 12.7623 29.997C13.6973 29.9523 14.6055 29.6696 15.4008 29.1758C16.1961 28.682 16.8522 27.9934 17.3069 27.1751C17.7617 26.3569 18.0001 25.4361 17.9995 24.5V20C19.0604 20.7956 20.3939 21.1373 21.7066 20.9497C23.0194 20.7622 24.2039 20.0609 24.9995 19C25.7952 17.9391 26.1368 16.6056 25.9493 15.2929C25.7617 13.9801 25.0604 12.7956 23.9995 12ZM15.9995 19H11.9995C11.2039 19 10.4408 18.6839 9.8782 18.1213C9.31559 17.5587 8.99952 16.7956 8.99952 16C8.99952 15.2044 9.31559 14.4413 9.8782 13.8787C10.4408 13.3161 11.2039 13 11.9995 13H15.9995V19ZM20.9995 11H17.9995V5H20.9995C21.7952 5 22.5582 5.31607 23.1208 5.87868C23.6835 6.44129 23.9995 7.20435 23.9995 8C23.9995 8.79565 23.6835 9.55871 23.1208 10.1213C22.5582 10.6839 21.7952 11 20.9995 11Z" fill="black"/>
</svg>
