<svg width="512" height="513" viewBox="0 0 512 513" fill="none" xmlns="http://www.w3.org/2000/svg">
<path d="M0 256.625C0 159.312 20.4522 87.665 53.76 54.385C87.0678 21.105 158.753 0.625 256 0.625C353.355 0.625 424.96 21.0422 458.24 54.385C491.52 87.7278 512 159.42 512 256.625C512 353.948 491.556 425.585 458.24 458.865C424.924 492.145 353.237 512.625 256 512.625C158.796 512.625 87.1038 492.145 53.76 458.865C20.4162 425.585 0 353.981 0 256.625Z" fill="#3CBF74"/>
<path fill-rule="evenodd" clip-rule="evenodd" d="M358.2 408.625H285.24V274.865H236.6V408.625H163.64V274.865H115V201.905H164.126C168.626 141.591 207.173 104.625 267 104.625H297.765V177.585H267C255.813 177.585 240.978 177.585 237.451 201.905H358.2V408.625Z" fill="white"/>
</svg>
