<svg width="32" height="32" viewBox="0 0 32 32" fill="none" xmlns="http://www.w3.org/2000/svg">
<path d="M26.294 16.1704C26.1927 16.1116 26.0815 16.0554 25.9665 16.0004C26.0815 15.9454 26.1927 15.8891 26.294 15.8304C26.8672 15.5045 27.3703 15.0684 27.7743 14.5473C28.1783 14.0261 28.4752 13.4302 28.648 12.7939C28.8208 12.1575 28.866 11.4932 28.781 10.8393C28.696 10.1854 28.4825 9.5548 28.1528 8.98375C27.8231 8.4127 27.3837 7.9125 26.8599 7.51196C26.336 7.11142 25.7382 6.81844 25.1007 6.6499C24.4632 6.48135 23.7987 6.44057 23.1453 6.5299C22.492 6.61923 21.8628 6.8369 21.294 7.17039C21.1927 7.22914 21.0877 7.29539 20.984 7.36914C20.994 7.24414 21.0002 7.11914 21.0002 6.99414C21.0002 5.66806 20.4734 4.39629 19.5357 3.45861C18.5981 2.52092 17.3263 1.99414 16.0002 1.99414C14.6741 1.99414 13.4024 2.52092 12.4647 3.45861C11.527 4.39629 11.0002 5.66806 11.0002 6.99414C11.0002 7.11164 11.0002 7.23664 11.0165 7.36914C10.9127 7.29789 10.8077 7.22914 10.7065 7.17039C10.1376 6.8369 9.5084 6.61923 8.85508 6.5299C8.20176 6.44057 7.53722 6.48135 6.89973 6.6499C6.26223 6.81844 5.66437 7.11142 5.14056 7.51196C4.61675 7.9125 4.17735 8.4127 3.84764 8.98375C3.51793 9.5548 3.30444 10.1854 3.21944 10.8393C3.13445 11.4932 3.17964 12.1575 3.35241 12.7939C3.52518 13.4302 3.82211 14.0261 4.22612 14.5473C4.63013 15.0684 5.13323 15.5045 5.70646 15.8304C5.80771 15.8891 5.91896 15.9454 6.03396 16.0004C5.91896 16.0554 5.80771 16.1116 5.70646 16.1704C5.13323 16.4963 4.63013 16.9324 4.22612 17.4535C3.82211 17.9747 3.52518 18.5706 3.35241 19.2069C3.17964 19.8433 3.13445 20.5075 3.21944 21.1614C3.30444 21.8153 3.51793 22.446 3.84764 23.017C4.17735 23.5881 4.61675 24.0883 5.14056 24.4888C5.66437 24.8894 6.26223 25.1823 6.89973 25.3509C7.53722 25.5194 8.20176 25.5602 8.85508 25.4709C9.5084 25.3816 10.1376 25.1639 10.7065 24.8304C10.8077 24.7716 10.9127 24.7054 11.0165 24.6316C11.0065 24.7566 11.0002 24.8816 11.0002 25.0004C11.0002 26.3265 11.527 27.5982 12.4647 28.5359C13.4024 29.4736 14.6741 30.0004 16.0002 30.0004C17.3263 30.0004 18.5981 29.4736 19.5357 28.5359C20.4734 27.5982 21.0002 26.3265 21.0002 25.0004C21.0002 24.8829 20.994 24.7579 20.984 24.6316C21.0877 24.7029 21.1927 24.7716 21.294 24.8304C22.0514 25.2692 22.9111 25.5003 23.7865 25.5004C24.2263 25.4998 24.6641 25.4418 25.089 25.3279C26.0442 25.0719 26.902 24.5383 27.554 23.7948C28.206 23.0512 28.6228 22.131 28.7518 21.1505C28.8808 20.17 28.7161 19.1733 28.2786 18.2864C27.8411 17.3995 27.1505 16.6622 26.294 16.1679V16.1704ZM16.0002 19.5004C15.308 19.5004 14.6313 19.2951 14.0557 18.9105C13.4801 18.5259 13.0315 17.9793 12.7666 17.3398C12.5017 16.7002 12.4324 15.9965 12.5675 15.3176C12.7025 14.6386 13.0358 14.015 13.5253 13.5255C14.0148 13.036 14.6385 12.7027 15.3174 12.5676C15.9963 12.4326 16.7001 12.5019 17.3396 12.7668C17.9791 13.0317 18.5258 13.4803 18.9103 14.0559C19.2949 14.6315 19.5002 15.3082 19.5002 16.0004C19.5002 16.9286 19.1315 17.8189 18.4751 18.4753C17.8187 19.1316 16.9285 19.5004 16.0002 19.5004Z" fill="black"/>
</svg>
