<svg width="512" height="512" viewBox="0 0 512 512" fill="none" xmlns="http://www.w3.org/2000/svg">
<path d="M0 256C0 158.687 20.4522 87.04 53.76 53.76C87.0678 20.48 158.753 0 256 0C353.355 0 424.96 20.4172 458.24 53.76C491.52 87.1028 512 158.795 512 256C512 353.323 491.556 424.96 458.24 458.24C424.924 491.52 353.237 512 256 512C158.796 512 87.1038 491.52 53.76 458.24C20.4162 424.96 0 353.356 0 256Z" fill="white"/>
<mask id="mask0_2179_89" style="mask-type:alpha" maskUnits="userSpaceOnUse" x="0" y="0" width="512" height="512">
<path d="M0 256C0 158.687 20.4522 87.04 53.76 53.76C87.0678 20.48 158.753 0 256 0C353.355 0 424.96 20.4172 458.24 53.76C491.52 87.1028 512 158.795 512 256C512 353.323 491.556 424.96 458.24 458.24C424.924 491.52 353.237 512 256 512C158.796 512 87.1038 491.52 53.76 458.24C20.4162 424.96 0 353.356 0 256Z" fill="white"/>
</mask>
<g mask="url(#mask0_2179_89)">
<path d="M398.386 511.73L114.067 512C51.5165 512.057 0.29631 460.936 0.22523 398.386L-0.0448745 114.067C-0.101738 51.5162 51.0189 0.296066 113.569 0.224986L397.889 -0.0451186C460.439 -0.101983 511.659 51.0187 511.73 113.569L512 397.888C512.071 460.453 460.936 511.673 398.386 511.73Z" fill="url(#paint0_radial_2179_89)"/>
<path d="M398.386 511.73L114.067 512C51.5165 512.057 0.29631 460.936 0.22523 398.386L-0.0448745 114.067C-0.101738 51.5162 51.0189 0.296066 113.569 0.224986L397.889 -0.0451186C460.439 -0.101983 511.659 51.0187 511.73 113.569L512 397.888C512.071 460.453 460.936 511.673 398.386 511.73Z" fill="url(#paint1_radial_2179_89)"/>
</g>
<path d="M256.021 331.417C214.456 331.417 180.625 297.596 180.625 256.021C180.625 214.445 214.456 180.625 256.021 180.625C297.585 180.625 331.417 214.445 331.417 256.021C331.417 297.596 297.585 331.417 256.021 331.417ZM256.021 202.167C226.326 202.167 202.167 226.326 202.167 256.021C202.167 285.716 226.326 309.875 256.021 309.875C285.716 309.875 309.875 285.716 309.875 256.021C309.875 226.326 285.716 202.167 256.021 202.167Z" fill="white"/>
<path d="M336.803 191.396C345.726 191.396 352.959 184.163 352.959 175.24C352.959 166.317 345.726 159.083 336.803 159.083C327.88 159.083 320.646 166.317 320.646 175.24C320.646 184.163 327.88 191.396 336.803 191.396Z" fill="white"/>
<path d="M320.646 396.042H191.396C149.831 396.042 116 362.221 116 320.646V191.396C116 149.82 149.831 116 191.396 116H320.646C362.21 116 396.042 149.82 396.042 191.396V320.646C396.042 362.221 362.21 396.042 320.646 396.042ZM191.396 137.542C161.701 137.542 137.542 161.701 137.542 191.396V320.646C137.542 350.341 161.701 374.5 191.396 374.5H320.646C350.341 374.5 374.5 350.341 374.5 320.646V191.396C374.5 161.701 350.341 137.542 320.646 137.542H191.396Z" fill="white"/>
<defs>
<radialGradient id="paint0_radial_2179_89" cx="0" cy="0" r="1" gradientUnits="userSpaceOnUse" gradientTransform="translate(190.307 512.37) scale(638.283 638.283)">
<stop stop-color="#FFDD55"/>
<stop offset="0.328" stop-color="#FF543F"/>
<stop offset="0.348" stop-color="#FC5245"/>
<stop offset="0.504" stop-color="#E64771"/>
<stop offset="0.643" stop-color="#D53E91"/>
<stop offset="0.761" stop-color="#CC39A4"/>
<stop offset="0.841" stop-color="#C837AB"/>
</radialGradient>
<radialGradient id="paint1_radial_2179_89" cx="0" cy="0" r="1" gradientUnits="userSpaceOnUse" gradientTransform="translate(82.3509 -6.43801) scale(423.821 282.392)">
<stop stop-color="#4168C9"/>
<stop offset="0.999" stop-color="#4168C9" stop-opacity="0"/>
</radialGradient>
</defs>
</svg>
