<svg width="512" height="512" viewBox="0 0 512 512" fill="none" xmlns="http://www.w3.org/2000/svg">
<path d="M0 256C0 158.687 20.4522 87.04 53.76 53.76C87.0678 20.48 158.753 0 256 0C353.355 0 424.96 20.4172 458.24 53.76C491.52 87.1028 512 158.795 512 256C512 353.323 491.556 424.96 458.24 458.24C424.924 491.52 353.237 512 256 512C158.796 512 87.1038 491.52 53.76 458.24C20.4162 424.96 0 353.356 0 256Z" fill="#0288D1"/>
<path d="M103 192.25H166.75V409H103V192.25ZM134.684 166.75H134.327C115.304 166.75 103 152.572 103 134.862C103 116.77 115.686 103 135.053 103C154.446 103 166.393 116.77 166.75 134.862C166.75 152.559 154.446 166.75 134.684 166.75ZM409 409H345.25V292.988C345.25 264.963 329.631 245.838 304.552 245.838C285.414 245.838 275.061 258.741 270.038 271.211C268.202 275.673 268.75 288.015 268.75 294.25V409H205V192.25H268.75V225.604C277.943 211.375 292.338 192.25 329.16 192.25C374.779 192.25 408.987 220.938 408.987 284.994L409 409Z" fill="white"/>
</svg>
