<svg width="512" height="513" viewBox="0 0 512 513" fill="none" xmlns="http://www.w3.org/2000/svg">
<path d="M0 256.25C0 158.937 20.4522 87.29 53.76 54.01C87.0678 20.73 158.753 0.25 256 0.25C353.355 0.25 424.96 20.6672 458.24 54.01C491.52 87.3528 512 159.045 512 256.25C512 353.573 491.556 425.21 458.24 458.49C424.924 491.77 353.237 512.25 256 512.25C158.796 512.25 87.1038 491.77 53.76 458.49C20.4162 425.21 0 353.606 0 256.25Z" fill="white"/>
<path d="M289.27 256.627L316.371 287.604L352.812 310.893L359.167 256.818L352.812 203.95L315.672 224.411L289.27 256.627Z" fill="#00832D"/>
<path d="M132 305.873V351.941C132 362.474 140.531 371.004 151.063 371.004H197.131L206.663 336.183L197.131 305.873L165.519 296.341L132 305.873Z" fill="#0066DA"/>
<path d="M197.131 142.25L132 207.381L165.519 216.913L197.131 207.381L206.504 177.485L197.131 142.25Z" fill="#E94235"/>
<path d="M197.131 207.381H132V305.873H197.131V207.381Z" fill="#2684FC"/>
<path d="M394.431 169.828L352.811 203.95V310.893L394.622 345.174C400.881 350.067 410.031 345.603 410.031 337.644V177.199C410.031 169.145 400.675 164.728 394.431 169.828ZM289.268 256.627V305.873H197.131V371.004H333.748C344.28 371.004 352.811 362.474 352.811 351.942V310.893L289.268 256.627Z" fill="#00AC47"/>
<path d="M333.748 142.25H197.131V207.381H289.268V256.627L352.811 203.982V161.313C352.811 150.781 344.28 142.25 333.748 142.25Z" fill="#FFBA00"/>
</svg>
