<svg width="80" height="80" viewBox="0 0 80 80" fill="none" xmlns="http://www.w3.org/2000/svg">
<circle cx="40" cy="40" r="40" fill="#0022DD"/>
<path d="M26.0612 40.0068C26.0612 29.6491 26.0612 24.4703 29.2604 22.3327C29.5217 22.1581 29.7941 22.0008 30.0759 21.8619C33.5267 20.1601 38.0117 22.7495 46.9817 27.9283C55.9517 33.1072 60.4367 35.6966 60.6884 39.536C60.7089 39.8495 60.7089 40.1641 60.6884 40.4776C60.4367 44.317 55.9517 46.9064 46.9817 52.0852C38.0117 57.2641 33.5267 59.8535 30.0759 58.1517C29.7941 58.0127 29.5217 57.8555 29.2604 57.6809C26.0612 55.5433 26.0612 50.3644 26.0612 40.0068Z" fill="white"/>
</svg>
