<svg width="32" height="32" viewBox="0 0 32 32" fill="none" xmlns="http://www.w3.org/2000/svg">
<path d="M27.6407 15.9994C28.3778 15.3417 28.8454 14.4345 28.9536 13.4526C29.0617 12.4707 28.8027 11.4835 28.2263 10.6811C27.65 9.87881 26.7972 9.31813 25.8321 9.10709C24.867 8.89606 23.858 9.04961 22.9994 9.53816V6.99941C22.9985 6.18731 22.7504 5.39472 22.2881 4.72702C21.8259 4.05932 21.1713 3.54815 20.4115 3.26145C19.6517 2.97476 18.8226 2.92613 18.0345 3.12203C17.2464 3.31793 16.5366 3.74908 15.9994 4.35816C15.3417 3.62105 14.4345 3.15338 13.4526 3.04525C12.4707 2.93712 11.4835 3.19616 10.6811 3.77249C9.87881 4.34882 9.31813 5.20166 9.10709 6.16672C8.89606 7.13178 9.04961 8.1408 9.53816 8.99941H6.99941C6.18731 9.00032 5.39472 9.2484 4.72702 9.71067C4.05932 10.1729 3.54815 10.8275 3.26145 11.5873C2.97476 12.3471 2.92613 13.1762 3.12203 13.9643C3.31793 14.7524 3.74908 15.4623 4.35816 15.9994C3.62105 16.6571 3.15338 17.5643 3.04525 18.5462C2.93712 19.5281 3.19616 20.5154 3.77249 21.3177C4.34882 22.12 5.20166 22.6807 6.16672 22.8917C7.13178 23.1028 8.1408 22.9492 8.99941 22.4607V24.9994C9.00032 25.8115 9.2484 26.6041 9.71067 27.2718C10.1729 27.9395 10.8275 28.4507 11.5873 28.7374C12.3471 29.0241 13.1762 29.0727 13.9643 28.8768C14.7524 28.6809 15.4623 28.2497 15.9994 27.6407C16.6571 28.3778 17.5643 28.8454 18.5462 28.9536C19.5281 29.0617 20.5154 28.8027 21.3177 28.2263C22.12 27.65 22.6807 26.7972 22.8917 25.8321C23.1028 24.867 22.9492 23.858 22.4607 22.9994H24.9994C25.8115 22.9985 26.6041 22.7504 27.2718 22.2881C27.9395 21.8259 28.4507 21.1713 28.7374 20.4115C29.0241 19.6517 29.0727 18.8226 28.8768 18.0345C28.6809 17.2464 28.2497 16.5366 27.6407 15.9994ZM10.9994 6.99941C10.9994 6.46898 11.2101 5.96027 11.5852 5.58519C11.9603 5.21012 12.469 4.99941 12.9994 4.99941C13.5298 4.99941 14.0385 5.21012 14.4136 5.58519C14.7887 5.96027 14.9994 6.46898 14.9994 6.99941V8.99941H12.9994C12.469 8.99941 11.9603 8.78869 11.5852 8.41362C11.2101 8.03855 10.9994 7.52984 10.9994 6.99941ZM4.99941 12.9994C4.99941 12.469 5.21012 11.9603 5.58519 11.5852C5.96027 11.2101 6.46898 10.9994 6.99941 10.9994H12.9994C13.5298 10.9994 14.0385 11.2101 14.4136 11.5852C14.7887 11.9603 14.9994 12.469 14.9994 12.9994V14.9994H6.99941C6.46898 14.9994 5.96027 14.7887 5.58519 14.4136C5.21012 14.0385 4.99941 13.5298 4.99941 12.9994ZM20.9994 24.9994C20.9994 25.5298 20.7887 26.0385 20.4136 26.4136C20.0385 26.7887 19.5298 26.9994 18.9994 26.9994C18.469 26.9994 17.9603 26.7887 17.5852 26.4136C17.2101 26.0385 16.9994 25.5298 16.9994 24.9994V22.9994H18.9994C19.5298 22.9994 20.0385 23.2101 20.4136 23.5852C20.7887 23.9603 20.9994 24.469 20.9994 24.9994ZM24.9994 20.9994H18.9994C18.469 20.9994 17.9603 20.7887 17.5852 20.4136C17.2101 20.0385 16.9994 19.5298 16.9994 18.9994V16.9994H24.9994C25.5298 16.9994 26.0385 17.2101 26.4136 17.5852C26.7887 17.9603 26.9994 18.469 26.9994 18.9994C26.9994 19.5298 26.7887 20.0385 26.4136 20.4136C26.0385 20.7887 25.5298 20.9994 24.9994 20.9994Z" fill="black"/>
</svg>
