<svg width="512" height="512" viewBox="0 0 512 512" fill="none" xmlns="http://www.w3.org/2000/svg">
<g clip-path="url(#clip0_20_3)">
<path d="M0 256C0 158.687 20.4522 87.04 53.76 53.76C87.0678 20.48 158.753 0 256 0C353.355 0 424.96 20.4172 458.24 53.76C491.52 87.1028 512 158.795 512 256C512 353.323 491.556 424.96 458.24 458.24C424.924 491.52 353.237 512 256 512C158.796 512 87.1038 491.52 53.76 458.24C20.4162 424.96 0 353.356 0 256Z" fill="black"/>
<g clip-path="url(#clip1_20_3)">
<path d="M256 94C166.527 94 94 166.527 94 256C94 345.473 166.527 418 256 418C345.473 418 418 345.473 418 256C418 166.538 345.473 94.0111 256 94ZM330.296 327.643C327.388 332.418 321.165 333.91 316.411 331.003C278.374 307.756 230.487 302.505 174.099 315.383C168.66 316.633 163.244 313.228 162.006 307.789C160.757 302.35 164.15 296.934 169.6 295.696C231.305 281.602 284.244 287.67 326.946 313.758C331.699 316.688 333.214 322.889 330.296 327.643ZM350.116 283.547C346.457 289.494 338.675 291.351 332.739 287.704C289.207 260.941 222.815 253.192 171.313 268.823C164.637 270.846 157.584 267.076 155.55 260.411C153.538 253.734 157.308 246.692 163.973 244.658C222.804 226.806 295.95 235.45 345.948 266.181C351.896 269.84 353.775 277.611 350.116 283.547ZM351.818 237.606C299.598 206.599 213.463 203.747 163.609 218.869C155.605 221.301 147.138 216.78 144.717 208.776C142.296 200.773 146.806 192.305 154.82 189.873C212.048 172.507 307.17 175.857 367.283 211.54C374.479 215.818 376.845 225.114 372.578 232.3C368.322 239.507 359.003 241.884 351.818 237.606Z" fill="#2EBD59"/>
</g>
</g>
<defs>
<clipPath id="clip0_20_3">
<rect width="512" height="512" fill="white"/>
</clipPath>
<clipPath id="clip1_20_3">
<rect width="324" height="324" fill="white" transform="translate(94 94)"/>
</clipPath>
</defs>
</svg>
