<svg width="512" height="513" viewBox="0 0 512 513" fill="none" xmlns="http://www.w3.org/2000/svg">
<path d="M0 256.875C0 159.562 20.4522 87.915 53.76 54.635C87.0678 21.355 158.753 0.875 256 0.875C353.355 0.875 424.96 21.2922 458.24 54.635C491.52 87.9778 512 159.67 512 256.875C512 354.198 491.556 425.835 458.24 459.115C424.924 492.395 353.237 512.875 256 512.875C158.796 512.875 87.1038 492.395 53.76 459.115C20.4162 425.835 0 354.231 0 256.875Z" fill="black"/>
<path d="M324.798 246.313C323.553 245.716 322.287 245.141 321.005 244.591C318.773 203.459 296.298 179.911 258.559 179.67C258.388 179.669 258.218 179.669 258.047 179.669C235.474 179.669 216.701 189.304 205.146 206.837L225.901 221.074C234.533 207.978 248.08 205.186 258.057 205.186C258.172 205.186 258.288 205.186 258.402 205.187C270.828 205.266 280.204 208.879 286.273 215.925C290.69 221.054 293.644 228.142 295.106 237.088C284.089 235.215 272.174 234.64 259.437 235.37C223.557 237.437 200.49 258.363 202.039 287.441C202.825 302.19 210.173 314.879 222.729 323.169C233.344 330.176 247.016 333.603 261.226 332.827C279.991 331.798 294.712 324.639 304.982 311.547C312.781 301.606 317.714 288.723 319.892 272.489C328.835 277.886 335.463 284.988 339.123 293.526C345.347 308.039 345.71 331.888 326.25 351.332C309.201 368.365 288.706 375.734 257.733 375.961C223.375 375.707 197.391 364.688 180.497 343.211C164.677 323.101 156.501 294.053 156.196 256.875C156.501 219.696 164.677 190.649 180.497 170.538C197.391 149.062 223.375 138.043 257.732 137.788C292.339 138.045 318.776 149.117 336.317 170.697C344.918 181.279 351.403 194.588 355.677 210.105L380 203.616C374.818 184.516 366.664 168.057 355.569 154.408C333.081 126.741 300.193 112.564 257.817 112.271H257.648C215.358 112.563 182.838 126.794 160.991 154.566C141.55 179.28 131.522 213.668 131.185 256.773L131.184 256.875L131.185 256.977C131.522 300.082 141.55 334.47 160.991 359.184C182.838 386.956 215.358 401.187 257.648 401.479H257.817C295.415 401.219 321.917 391.375 343.749 369.562C372.313 341.026 371.453 305.256 362.038 283.297C355.284 267.55 342.407 254.76 324.798 246.313ZM259.882 307.346C244.157 308.232 227.819 301.174 227.014 286.055C226.416 274.845 234.991 262.337 260.847 260.847C263.808 260.676 266.714 260.592 269.569 260.592C278.96 260.592 287.746 261.505 295.734 263.251C292.755 300.46 275.279 306.501 259.882 307.346Z" fill="white"/>
</svg>
