<svg width="512" height="513" viewBox="0 0 512 513" fill="none" xmlns="http://www.w3.org/2000/svg">
<path d="M0 256.625C0 159.312 20.4522 87.665 53.76 54.385C87.0678 21.105 158.753 0.625 256 0.625C353.355 0.625 424.96 21.0422 458.24 54.385C491.52 87.7278 512 159.42 512 256.625C512 353.948 491.556 425.585 458.24 458.865C424.924 492.145 353.237 512.625 256 512.625C158.796 512.625 87.1038 492.145 53.76 458.865C20.4162 425.585 0 353.981 0 256.625Z" fill="black"/>
<path d="M348.689 293.748C338.699 293.192 328.989 290.245 320.374 285.157C311.76 280.068 304.493 272.985 299.185 264.504C305.588 213.47 324.224 197.606 348.88 197.606C373.537 197.606 392.269 216.72 392.269 245.39C392.269 274.061 373.155 293.175 348.88 293.175M348.88 165.686C331.48 164.981 314.385 170.414 300.584 181.035C286.783 191.657 277.154 206.791 273.381 223.792C265.2 206.652 259.012 188.631 254.936 170.082H194.059V245.581C194.059 273.01 181.635 293.366 157.265 293.366C132.895 293.366 119.037 273.105 119.037 245.581V170.082H84.0592V245.581C83.2654 266.503 90.4766 286.941 104.224 302.732C110.934 310.038 119.131 315.822 128.264 319.696C137.396 323.57 147.252 325.443 157.169 325.19C199.315 325.19 228.846 292.792 228.846 246.442V195.408C236.004 222.87 247.836 248.894 263.824 272.341L245.093 379.187H280.644L292.973 303.496C297.054 307.01 301.399 310.205 305.97 313.053C317.846 320.554 331.498 324.775 345.535 325.286H348.785C359.227 325.394 369.584 323.389 379.231 319.39C388.878 315.391 397.616 309.482 404.919 302.018C412.223 294.554 417.941 285.689 421.728 275.957C425.516 266.225 427.296 255.828 426.96 245.39C427.204 234.991 425.354 224.649 421.522 214.979C417.689 205.309 411.951 196.508 404.65 189.099C397.348 181.691 388.632 175.825 379.018 171.853C369.405 167.88 359.091 165.88 348.689 165.973" fill="white"/>
</svg>
