<svg width="512" height="513" viewBox="0 0 512 513" fill="none" xmlns="http://www.w3.org/2000/svg">
<path d="M0 256.25C0 158.937 20.4522 87.29 53.76 54.01C87.0678 20.73 158.753 0.25 256 0.25C353.355 0.25 424.96 20.6672 458.24 54.01C491.52 87.3528 512 159.045 512 256.25C512 353.573 491.556 425.21 458.24 458.49C424.924 491.77 353.237 512.25 256 512.25C158.796 512.25 87.1038 491.77 53.76 458.49C20.4162 425.21 0 353.606 0 256.25Z" fill="black"/>
<path d="M327.937 144.25H365.951L282.486 239.285L380 368.202H303.476L243.563 289.86L174.972 368.202H136.958L225.382 266.556L132 144.25H210.425L264.553 215.815L327.937 144.25ZM314.632 345.889H335.705L199.351 165.736H176.708L314.632 345.889Z" fill="white"/>
</svg>
