<svg width="512" height="513" viewBox="0 0 512 513" fill="none" xmlns="http://www.w3.org/2000/svg">
<path d="M0 256.875C0 159.562 20.4522 87.915 53.76 54.635C87.0678 21.355 158.753 0.875 256 0.875C353.355 0.875 424.96 21.2922 458.24 54.635C491.52 87.9778 512 159.67 512 256.875C512 354.198 491.556 425.835 458.24 459.115C424.924 492.395 353.237 512.875 256 512.875C158.796 512.875 87.1038 492.395 53.76 459.115C20.4162 425.835 0 354.231 0 256.875Z" fill="#FF0033"/>
<path d="M255.33 369.013C255.33 369.013 357.141 369.013 382.395 362.289C396.614 358.478 407.307 347.496 411.061 333.935C418 309.056 418 256.72 418 256.72C418 256.72 418 204.72 411.061 180.065C407.307 166.168 396.614 155.409 382.395 151.711C357.141 144.875 255.33 144.875 255.33 144.875C255.33 144.875 153.746 144.875 128.606 151.711C114.614 155.409 103.693 166.168 99.7116 180.065C93 204.72 93 256.72 93 256.72C93 256.72 93 309.056 99.7116 333.935C103.693 347.496 114.614 358.478 128.606 362.289C153.746 369.013 255.33 369.013 255.33 369.013Z" fill="white"/>
<path d="M305.931 256.944L221.879 209.314V304.573L305.931 256.944Z" fill="#FF0033"/>
</svg>
