<svg width="512" height="513" viewBox="0 0 512 513" fill="none" xmlns="http://www.w3.org/2000/svg">
<path d="M0 256.25C0 158.937 20.4522 87.29 53.76 54.01C87.0678 20.73 158.753 0.25 256 0.25C353.355 0.25 424.96 20.6672 458.24 54.01C491.52 87.3528 512 159.045 512 256.25C512 353.573 491.556 425.21 458.24 458.49C424.924 491.77 353.237 512.25 256 512.25C158.796 512.25 87.1038 491.77 53.76 458.49C20.4162 425.21 0 353.606 0 256.25Z" fill="#2196F3"/>
<path d="M316.693 340.096H136.116C116.168 340.096 100 323.929 100 303.981V171.557H280.578C300.525 171.557 316.693 187.725 316.693 207.673V340.096Z" fill="white"/>
<path d="M413.001 340.096L340.77 291.942V219.711L413.001 171.557V340.096Z" fill="white"/>
</svg>
