<svg width="32" height="32" viewBox="0 0 32 32" fill="none" xmlns="http://www.w3.org/2000/svg">
<path d="M16.0009 3C13.7565 2.99951 11.5502 3.58011 9.5967 4.68529C7.64324 5.79046 6.00919 7.38256 4.8536 9.30662C3.69801 11.2307 3.06024 13.4212 3.00237 15.6648C2.9445 17.9085 3.46851 20.1289 4.52338 22.11L3.10463 26.3662C2.98712 26.7186 2.97006 27.0968 3.05538 27.4583C3.1407 27.8199 3.32503 28.1505 3.5877 28.4132C3.85037 28.6759 4.181 28.8602 4.54254 28.9455C4.90408 29.0308 5.28224 29.0138 5.63463 28.8962L9.89088 27.4775C11.6343 28.4048 13.5662 28.9228 15.5397 28.992C17.5132 29.0613 19.4765 28.68 21.2807 27.8772C23.0849 27.0743 24.6825 25.871 25.9521 24.3586C27.2218 22.8462 28.1303 21.0644 28.6085 19.1484C29.0868 17.2325 29.1223 15.2328 28.7123 13.301C28.3023 11.3693 27.4577 9.55642 26.2424 7.9999C25.0272 6.44337 23.4733 5.18415 21.6988 4.31782C19.9242 3.45149 17.9756 3.00081 16.0009 3ZM10.5009 17.5C10.2042 17.5 9.9142 17.412 9.66753 17.2472C9.42086 17.0824 9.2286 16.8481 9.11507 16.574C9.00153 16.2999 8.97183 15.9983 9.02971 15.7074C9.08758 15.4164 9.23045 15.1491 9.44022 14.9393C9.65 14.7296 9.91728 14.5867 10.2082 14.5288C10.4992 14.4709 10.8008 14.5006 11.0749 14.6142C11.349 14.7277 11.5833 14.92 11.7481 15.1666C11.9129 15.4133 12.0009 15.7033 12.0009 16C12.0009 16.3978 11.8428 16.7794 11.5615 17.0607C11.2802 17.342 10.8987 17.5 10.5009 17.5ZM16.0009 17.5C15.7042 17.5 15.4142 17.412 15.1675 17.2472C14.9209 17.0824 14.7286 16.8481 14.6151 16.574C14.5015 16.2999 14.4718 15.9983 14.5297 15.7074C14.5876 15.4164 14.7304 15.1491 14.9402 14.9393C15.15 14.7296 15.4173 14.5867 15.7082 14.5288C15.9992 14.4709 16.3008 14.5006 16.5749 14.6142C16.849 14.7277 17.0833 14.92 17.2481 15.1666C17.4129 15.4133 17.5009 15.7033 17.5009 16C17.5009 16.3978 17.3428 16.7794 17.0615 17.0607C16.7802 17.342 16.3987 17.5 16.0009 17.5ZM21.5009 17.5C21.2042 17.5 20.9142 17.412 20.6675 17.2472C20.4209 17.0824 20.2286 16.8481 20.1151 16.574C20.0015 16.2999 19.9718 15.9983 20.0297 15.7074C20.0876 15.4164 20.2304 15.1491 20.4402 14.9393C20.65 14.7296 20.9173 14.5867 21.2083 14.5288C21.4992 14.4709 21.8008 14.5006 22.0749 14.6142C22.349 14.7277 22.5833 14.92 22.7481 15.1666C22.9129 15.4133 23.0009 15.7033 23.0009 16C23.0009 16.3978 22.8428 16.7794 22.5615 17.0607C22.2802 17.342 21.8987 17.5 21.5009 17.5Z" fill="black"/>
</svg>
